<svg class="main-svg" xmlns="http://www.w3.org/2000/svg" xmlns:xlink="http://www.w3.org/1999/xlink" width="700" height="500" style="" viewBox="0 0 700 500"><rect x="0" y="0" width="700" height="500" style="fill: rgb(255, 255, 255); fill-opacity: 1;"/><defs id="defs-22b1d8"><g class="clips"><clipPath id="clip22b1d8xyplot" class="plotclip"><rect width="540" height="320"/></clipPath><clipPath class="axesclip" id="clip22b1d8x"><rect x="80" y="0" width="540" height="500"/></clipPath><clipPath class="axesclip" id="clip22b1d8y"><rect x="0" y="100" width="700" height="320"/></clipPath><clipPath class="axesclip" id="clip22b1d8xy"><rect x="80" y="100" width="540" height="320"/></clipPath></g><g class="gradients"/><g class="patterns"/></defs><g class="bglayer"><rect class="bg" x="80" y="100" width="540" height="320" style="fill: rgb(229, 236, 246); fill-opacity: 1; stroke-width: 0;"/></g><g class="layer-below"><g class="imagelayer"/><g class="shapelayer"/></g><g class="cartesianlayer"><g class="subplot xy"><g class="layer-subplot"><g class="shapelayer"/><g class="imagelayer"/></g><g class="minor-gridlayer"><g class="x"/><g class="y"/></g><g class="gridlayer"><g class="x"><path class="xgrid crisp" transform="translate(188.11,0)" d="M0,100v320" style="stroke: rgb(255, 255, 255); stroke-opacity: 1; stroke-width: 1px;"/><path class="xgrid crisp" transform="translate(296.22,0)" d="M0,100v320" style="stroke: rgb(255, 255, 255); stroke-opacity: 1; stroke-width: 1px;"/><path class="xgrid crisp" transform="translate(404.32,0)" d="M0,100v320" style="stroke: rgb(255, 255, 255); stroke-opacity: 1; stroke-width: 1px;"/><path class="xgrid crisp" transform="translate(512.4300000000001,0)" d="M0,100v320" style="stroke: rgb(255, 255, 255); stroke-opacity: 1; stroke-width: 1px;"/></g><g class="y"><path class="ygrid crisp" transform="translate(0,375.83)" d="M80,0h540" style="stroke: rgb(255, 255, 255); stroke-opacity: 1; stroke-width: 1px;"/><path class="ygrid crisp" transform="translate(0,313.22)" d="M80,0h540" style="stroke: rgb(255, 255, 255); stroke-opacity: 1; stroke-width: 1px;"/><path class="ygrid crisp" transform="translate(0,250.61)" d="M80,0h540" style="stroke: rgb(255, 255, 255); stroke-opacity: 1; stroke-width: 1px;"/><path class="ygrid crisp" transform="translate(0,188)" d="M80,0h540" style="stroke: rgb(255, 255, 255); stroke-opacity: 1; stroke-width: 1px;"/><path class="ygrid crisp" transform="translate(0,125.39)" d="M80,0h540" style="stroke: rgb(255, 255, 255); stroke-opacity: 1; stroke-width: 1px;"/></g></g><g class="zerolinelayer"><path class="xzl zl crisp" transform="translate(80,0)" d="M0,100v320" style="stroke: rgb(255, 255, 255); stroke-opacity: 1; stroke-width: 2px;"/></g><path class="xlines-below"/><path class="ylines-below"/><g class="overlines-below"/><g class="xaxislayer-below"/><g class="yaxislayer-below"/><g class="overaxes-below"/><g class="plot" transform="translate(80,100)" clip-path="url(#clip22b1d8xyplot)"><g class="scatterlayer mlayer"><g class="trace scatter trace8de296" style="stroke-miterlimit: 2; opacity: 1;"><g class="fills"/><g class="errorbars"/><g class="lines"><path class="js-line" d="M0,304L0.54,263.3L1.08,266.43L1.62,241.39L3.24,163.13L3.78,156.87L4.86,109.91L5.41,131.83L5.95,103.65L6.49,131.83L7.03,131.83L7.57,128.7L8.11,113.04L8.65,125.57L9.19,122.43L9.73,150.61L10.81,119.3L11.35,134.96L11.89,131.83L12.43,156.87L13.51,94.26L14.05,175.65L15.68,213.22L16.22,144.35L17.3,210.09L17.84,216.35L18.38,185.04L18.92,197.57L19.46,181.91L20,194.43L20.54,197.57L21.08,188.17L22.7,141.22L23.24,166.26L23.78,153.74L24.32,175.65L24.86,175.65L25.41,160L25.95,122.43L26.49,147.48L27.03,206.96L27.57,197.57L28.11,200.7L29.19,210.09L29.73,206.96L30.27,181.91L30.81,194.43L31.35,203.83L31.89,178.78L32.43,141.22L32.97,144.35L33.51,125.57L34.59,156.87L35.14,94.26L35.68,97.39L36.22,56.7L36.76,59.83L37.3,75.48L37.84,34.78L38.38,188.17L38.92,163.13L39.46,178.78L40.54,100.52L41.08,141.22L41.62,197.57L42.16,188.17L42.7,122.43L43.24,119.3L43.78,131.83L44.32,150.61L44.86,122.43L45.41,84.87L45.95,147.48L46.49,178.78L47.03,134.96L47.57,134.96L48.11,147.48L48.65,50.43L49.19,144.35L49.73,97.39L50.27,197.57L50.81,185.04L51.35,91.13L51.89,172.52L52.43,125.57L54.05,181.91L54.59,169.39L55.68,134.96L56.22,169.39L56.76,216.35L57.3,147.48L57.84,206.96L58.38,191.3L58.92,150.61L59.46,72.35L60,169.39L60.54,156.87L61.08,103.65L61.62,103.65L62.16,150.61L62.7,147.48L63.24,203.83L63.78,156.87L64.32,206.96L65.41,144.35L65.95,185.04L66.49,160L67.03,172.52L67.57,81.74L68.11,175.65L69.73,163.13L70.27,219.48L71.35,69.22L71.89,206.96L72.43,185.04L72.97,188.17L73.51,175.65L74.05,191.3L74.59,156.87L75.14,200.7L75.68,191.3L76.22,185.04L77.3,203.83L77.84,172.52L78.38,181.91L78.92,178.78L79.46,203.83L80,163.13L80.54,194.43L81.08,169.39L81.62,172.52L82.16,178.78L82.7,203.83L83.24,156.87L83.78,172.52L84.32,138.09L85.41,185.04L85.95,166.26L86.49,197.57L87.03,185.04L87.57,181.91L88.11,194.43L88.65,194.43L89.19,197.57L89.73,210.09L90.27,203.83L91.35,178.78L91.89,200.7L92.97,175.65L93.51,172.52L94.59,191.3L95.14,78.61L96.22,203.83L96.76,172.52L97.3,113.04L97.84,181.91L98.38,175.65L98.92,194.43L99.46,203.83L100,191.3L100.54,172.52L101.08,181.91L101.62,191.3L102.16,216.35L103.78,113.04L104.32,175.65L104.86,153.74L105.41,191.3L105.95,210.09L106.49,160L107.57,169.39L108.11,150.61L108.65,153.74L109.19,166.26L109.73,172.52L110.27,150.61L110.81,163.13L111.35,156.87L112.97,194.43L113.51,134.96L114.05,141.22L114.59,178.78L115.14,197.57L115.68,194.43L116.22,178.78L116.76,156.87L117.3,185.04L118.38,213.22L118.92,181.91L119.46,172.52L120,175.65L120.54,172.52L121.62,166.26L122.16,134.96L123.24,166.26L123.78,144.35L124.32,116.17L124.86,175.65L125.41,178.78L125.95,163.13L126.49,166.26L127.03,160L127.57,147.48L128.11,178.78L128.65,181.91L129.19,153.74L129.73,163.13L130.27,188.17L130.81,188.17L131.35,172.52L132.43,172.52L132.97,188.17L133.51,188.17L134.05,197.57L134.59,191.3L135.14,169.39L136.22,147.48L136.76,169.39L137.3,178.78L137.84,175.65L138.38,163.13L140,103.65L140.54,178.78L141.08,178.78L141.62,185.04L142.7,134.96L143.24,185.04L143.78,166.26L144.32,181.91L144.86,150.61L145.41,210.09L146.49,178.78L147.03,181.91L147.57,194.43L148.11,181.91L150.27,138.09L150.81,156.87L151.35,144.35L151.89,175.65L152.43,138.09L152.97,169.39L153.51,191.3L154.05,166.26L154.59,166.26L155.14,185.04L155.68,160L156.22,197.57L156.76,194.43L157.3,210.09L157.84,216.35L158.38,175.65L158.92,147.48L159.46,194.43L160,194.43L160.54,185.04L161.08,172.52L161.62,88L162.16,94.26L162.7,138.09L163.24,100.52L163.78,178.78L164.86,119.3L165.41,109.91L166.49,191.3L167.03,175.65L167.57,206.96L168.11,147.48L169.19,16L169.73,75.48L170.81,191.3L171.35,113.04L171.89,156.87L172.43,144.35L172.97,160L173.51,185.04L174.05,178.78L174.59,178.78L175.68,128.7L176.22,138.09L176.76,131.83L177.3,175.65L177.84,191.3L178.38,134.96L178.92,134.96L179.46,153.74L180,213.22L180.54,200.7L181.08,210.09L182.16,166.26L182.7,191.3L183.24,191.3L183.78,219.48L184.32,203.83L184.86,100.52L185.95,216.35L186.49,225.74L187.57,194.43L188.11,191.3L190.27,225.74L190.81,219.48L191.35,203.83L191.89,213.22L192.43,213.22L192.97,225.74L193.51,197.57L194.05,216.35L194.59,203.83L195.14,210.09L195.68,216.35L196.22,213.22L196.76,222.61L197.3,213.22L197.84,203.83L198.38,210.09L198.92,213.22L199.46,225.74L200.54,219.48L201.08,203.83L202.16,219.48L202.7,219.48L203.24,228.87L203.78,188.17L204.86,206.96L205.41,194.43L205.95,219.48L206.49,216.35L207.03,213.22L207.57,203.83L208.11,206.96L208.65,210.09L209.19,206.96L209.73,219.48L210.27,219.48L210.81,200.7L212.43,222.61L212.97,222.61L214.05,200.7L214.59,213.22L216.22,228.87L216.76,206.96L217.3,206.96L217.84,213.22L218.38,210.09L218.92,216.35L219.46,219.48L220,210.09L220.54,203.83L221.08,210.09L222.7,225.74L223.24,216.35L223.78,200.7L224.32,213.22L225.41,222.61L225.95,216.35L227.03,206.96L227.57,213.22L228.11,197.57L228.65,213.22L229.19,219.48L229.73,210.09L230.27,197.57L230.81,203.83L231.35,175.65L231.89,178.78L232.43,185.04L232.97,178.78L233.51,138.09L234.05,172.52L234.59,163.13L235.14,181.91L235.68,172.52L236.22,175.65L236.76,169.39L237.3,150.61L237.84,163.13L238.92,181.91L239.46,185.04L240,128.7L240.54,188.17L241.62,203.83L242.16,160L242.7,185.04L243.24,116.17L244.32,175.65L244.86,178.78L245.41,172.52L245.95,200.7L247.03,100.52L247.57,94.26L248.11,144.35L248.65,109.91L249.73,163.13L250.27,131.83L250.81,47.3L251.35,163.13L251.89,141.22L252.43,169.39L252.97,44.17L253.51,122.43L254.05,141.22L254.59,122.43L255.68,47.3L256.22,62.96L256.76,56.7L257.3,78.61L257.84,100.52L258.38,56.7L258.92,169.39L259.46,106.78L260,147.48L260.54,131.83L261.08,166.26L261.62,181.91L262.16,166.26L263.24,185.04L263.78,131.83L264.32,131.83L264.86,41.04L265.95,128.7L266.49,141.22L267.57,181.91L268.11,156.87L268.65,150.61L269.19,163.13L269.73,109.91L270.27,128.7L270.81,109.91L271.35,172.52L271.89,160L272.43,144.35L273.51,166.26L274.05,153.74L274.59,185.04L275.14,119.3L277.3,166.26L277.84,125.57L278.38,147.48L278.92,103.65L279.46,94.26L280,113.04L281.08,172.52L281.62,138.09L282.16,81.74L282.7,131.83L283.78,181.91L284.32,150.61L284.86,156.87L285.41,178.78L285.95,150.61L286.49,160L287.03,163.13L288.11,181.91L288.65,166.26L289.19,160L289.73,141.22L290.27,147.48L290.81,163.13L291.35,75.48L291.89,134.96L292.97,178.78L293.51,178.78L294.05,178.78L294.59,125.57L295.14,109.91L295.68,144.35L296.76,175.65L297.3,156.87L297.84,144.35L298.38,147.48L298.92,163.13L299.46,160L300,166.26L300.54,178.78L301.08,147.48L301.62,150.61L302.16,147.48L302.7,160L303.24,150.61L303.78,150.61L304.32,160L304.86,100.52L305.41,134.96L305.95,166.26L306.49,163.13L307.03,125.57L307.57,144.35L308.11,113.04L309.19,163.13L309.73,147.48L310.27,175.65L310.81,166.26L311.35,122.43L311.89,116.17L312.43,178.78L312.97,163.13L313.51,169.39L314.05,169.39L314.59,122.43L315.14,134.96L315.68,56.7L316.22,166.26L316.76,144.35L317.3,175.65L317.84,119.3L318.38,178.78L318.92,185.04L319.46,181.91L320,188.17L320.54,119.3L321.62,153.74L322.16,116.17L322.7,191.3L323.24,119.3L323.78,185.04L324.32,59.83L325.41,191.3L325.95,210.09L326.49,175.65L327.03,203.83L327.57,128.7L328.11,172.52L328.65,178.78L329.19,153.74L330.27,169.39L330.81,163.13L331.89,185.04L332.43,166.26L333.51,203.83L334.05,178.78L335.14,125.57L335.68,185.04L336.76,141.22L337.3,150.61L337.84,141.22L338.38,103.65L338.92,181.91L339.46,166.26L340,175.65L341.08,153.74L341.62,156.87L342.7,169.39L343.24,163.13L343.78,141.22L344.32,153.74L345.41,163.13L345.95,147.48L346.49,125.57L347.03,141.22L347.57,147.48L348.11,163.13L348.65,153.74L349.19,172.52L349.73,166.26L350.27,128.7L350.81,156.87L351.35,153.74L351.89,153.74L352.43,194.43L352.97,163.13L353.51,138.09L354.05,153.74L354.59,69.22L355.14,172.52L355.68,181.91L356.22,172.52L357.3,138.09L357.84,160L358.38,153.74L358.92,172.52L359.46,169.39L360,147.48L360.54,172.52L361.08,160L361.62,188.17L362.16,144.35L363.24,172.52L363.78,119.3L365.41,191.3L365.95,134.96L366.49,134.96L367.03,147.48L367.57,169.39L368.11,141.22L368.65,166.26L369.19,150.61L369.73,188.17L370.27,169.39L371.35,138.09L371.89,163.13L372.43,116.17L372.97,125.57L373.51,144.35L374.59,160L375.14,153.74L375.68,163.13L376.22,122.43L377.84,181.91L378.38,172.52L378.92,172.52L379.46,160L380,128.7L380.54,163.13L381.08,191.3L381.62,169.39L382.16,138.09L382.7,153.74L383.24,160L383.78,181.91L384.32,185.04L384.86,197.57L385.41,134.96L385.95,138.09L386.49,141.22L387.03,141.22L387.57,175.65L388.65,128.7L389.19,141.22L389.73,88L390.27,128.7L391.35,150.61L391.89,100.52L392.97,166.26L393.51,147.48L394.59,109.91L395.14,156.87L395.68,194.43L396.22,138.09L396.76,91.13L397.3,213.22L397.84,191.3L398.38,194.43L398.92,178.78L399.46,200.7L400,185.04L400.54,197.57L401.08,169.39L401.62,185.04L402.16,178.78L402.7,169.39L403.24,178.78L403.78,197.57L404.32,191.3L404.86,175.65L405.41,113.04L405.95,200.7L406.49,156.87L407.03,197.57L408.65,163.13L409.19,191.3L409.73,200.7L410.27,185.04L410.81,188.17L411.35,197.57L411.89,197.57L412.43,194.43L412.97,131.83L413.51,206.96L414.05,160L414.59,197.57L415.14,106.78L415.68,153.74L416.76,216.35L417.3,181.91L417.84,194.43L418.38,172.52L418.92,141.22L419.46,178.78L420,194.43L420.54,169.39L421.08,172.52L421.62,185.04L422.16,185.04L422.7,206.96L423.24,191.3L423.78,206.96L424.86,156.87L425.41,185.04L425.95,206.96L426.49,203.83L427.03,191.3L427.57,191.3L428.11,178.78L429.19,197.57L429.73,185.04L430.27,194.43L430.81,160L431.35,188.17L431.89,141.22L432.97,181.91L433.51,194.43L434.05,160L434.59,185.04L435.14,191.3L435.68,172.52L436.22,175.65L436.76,200.7L437.84,163.13L438.38,206.96L438.92,181.91L439.46,188.17L440,203.83L440.54,150.61L441.08,178.78L441.62,166.26L442.16,206.96L442.7,191.3L443.24,197.57L443.78,160L444.32,166.26L444.86,166.26L445.41,160L445.95,181.91L447.03,197.57L447.57,200.7L448.11,191.3L448.65,163.13L449.19,166.26L449.73,153.74L450.27,200.7L450.81,147.48L452.43,197.57L452.97,178.78L453.51,191.3L454.05,188.17L454.59,191.3L455.68,194.43L456.22,178.78L457.84,147.48L458.38,181.91L459.46,200.7L460,197.57L460.54,172.52L461.08,197.57L461.62,125.57L462.16,153.74L462.7,172.52L463.24,138.09L463.78,169.39L464.32,166.26L464.86,156.87L465.95,175.65L466.49,138.09L467.03,128.7L467.57,160L468.11,169.39L468.65,147.48L469.73,116.17L470.27,128.7L470.81,172.52L471.35,150.61L471.89,213.22L472.43,175.65L472.97,125.57L473.51,172.52L474.59,131.83L475.14,134.96L476.22,160L476.76,156.87L477.3,116.17L478.92,191.3L479.46,131.83L480,160L480.54,134.96L481.08,175.65L481.62,163.13L482.16,153.74L482.7,191.3L483.24,178.78L483.78,181.91L484.32,166.26L484.86,213.22L486.49,141.22L487.03,166.26L487.57,191.3L488.11,185.04L488.65,181.91L489.19,178.78L489.73,153.74L490.27,197.57L490.81,175.65L491.35,153.74L491.89,163.13L492.43,172.52L492.97,144.35L494.05,188.17L494.59,197.57L495.14,203.83L495.68,156.87L496.22,191.3L496.76,175.65L497.84,194.43L498.38,191.3L498.92,160L499.46,178.78L500,166.26L501.62,178.78L502.16,178.78L502.7,156.87L503.24,163.13L503.78,160L504.32,197.57L504.86,178.78L507.03,206.96L507.57,194.43L508.11,197.57L508.65,81.74L509.19,181.91L509.73,166.26L510.27,178.78L510.81,175.65L511.35,194.43L512.43,153.74L512.97,181.91L513.51,188.17L514.05,153.74L515.14,181.91L515.68,172.52L516.22,160L516.76,181.91L517.3,210.09L517.84,188.17L518.38,156.87L518.92,172.52L519.46,169.39L520,175.65L520.54,181.91L521.08,200.7L521.62,197.57L522.16,150.61L522.7,147.48L523.24,156.87L523.78,175.65L524.32,163.13L525.41,156.87L525.95,166.26L526.49,210.09L527.03,185.04L527.57,191.3L528.11,172.52L528.65,106.78L529.19,163.13L529.73,147.48L530.27,178.78L530.81,178.78L531.35,175.65L531.89,191.3L532.43,181.91L533.51,206.96L534.05,178.78L536.22,213.22L536.76,203.83L538.92,138.09L539.46,206.96L540,163.13" style="vector-effect: none; fill: none; stroke: rgb(99, 110, 250); stroke-opacity: 1; stroke-width: 2px; opacity: 1;"/></g><g class="points"/><g class="text"/></g></g></g><g class="overplot"/><path class="xlines-above crisp" d="M0,0" style="fill: none;"/><path class="ylines-above crisp" d="M0,0" style="fill: none;"/><g class="overlines-above"/><g class="xaxislayer-above"><g class="xtick"><text text-anchor="middle" x="0" y="439" transform="translate(80,0)" style="font-family: 'Courier New', monospace; font-size: 18px; fill: rgb(102, 51, 153); fill-opacity: 1; white-space: pre; opacity: 1;">0</text></g><g class="xtick"><text text-anchor="middle" x="0" y="439" style="font-family: 'Courier New', monospace; font-size: 18px; fill: rgb(102, 51, 153); fill-opacity: 1; white-space: pre; opacity: 1;" transform="translate(188.11,0)">200</text></g><g class="xtick"><text text-anchor="middle" x="0" y="439" style="font-family: 'Courier New', monospace; font-size: 18px; fill: rgb(102, 51, 153); fill-opacity: 1; white-space: pre; opacity: 1;" transform="translate(296.22,0)">400</text></g><g class="xtick"><text text-anchor="middle" x="0" y="439" style="font-family: 'Courier New', monospace; font-size: 18px; fill: rgb(102, 51, 153); fill-opacity: 1; white-space: pre; opacity: 1;" transform="translate(404.32,0)">600</text></g><g class="xtick"><text text-anchor="middle" x="0" y="439" style="font-family: 'Courier New', monospace; font-size: 18px; fill: rgb(102, 51, 153); fill-opacity: 1; white-space: pre; opacity: 1;" transform="translate(512.4300000000001,0)">800</text></g></g><g class="yaxislayer-above"><g class="ytick"><text text-anchor="end" x="79" y="6.3" transform="translate(0,375.83)" style="font-family: 'Courier New', monospace; font-size: 18px; fill: rgb(102, 51, 153); fill-opacity: 1; white-space: pre; opacity: 1;">60</text></g><g class="ytick"><text text-anchor="end" x="79" y="6.3" style="font-family: 'Courier New', monospace; font-size: 18px; fill: rgb(102, 51, 153); fill-opacity: 1; white-space: pre; opacity: 1;" transform="translate(0,313.22)">80</text></g><g class="ytick"><text text-anchor="end" x="79" y="6.3" style="font-family: 'Courier New', monospace; font-size: 18px; fill: rgb(102, 51, 153); fill-opacity: 1; white-space: pre; opacity: 1;" transform="translate(0,250.61)">100</text></g><g class="ytick"><text text-anchor="end" x="79" y="6.3" style="font-family: 'Courier New', monospace; font-size: 18px; fill: rgb(102, 51, 153); fill-opacity: 1; white-space: pre; opacity: 1;" transform="translate(0,188)">120</text></g><g class="ytick"><text text-anchor="end" x="79" y="6.3" style="font-family: 'Courier New', monospace; font-size: 18px; fill: rgb(102, 51, 153); fill-opacity: 1; white-space: pre; opacity: 1;" transform="translate(0,125.39)">140</text></g></g><g class="overaxes-above"/></g></g><g class="polarlayer"/><g class="smithlayer"/><g class="ternarylayer"/><g class="geolayer"/><g class="funnelarealayer"/><g class="pielayer"/><g class="iciclelayer"/><g class="treemaplayer"/><g class="sunburstlayer"/><g class="glimages"/><defs id="topdefs-22b1d8"><g class="clips"/></defs><g class="layer-above"><g class="imagelayer"/><g class="shapelayer"/></g><g class="infolayer"><g class="g-gtitle"><text class="gtitle" x="35" y="50" text-anchor="start" dy="0em" style="font-family: 'Courier New', monospace; font-size: 25px; fill: rgb(102, 51, 153); opacity: 1; font-weight: normal; white-space: pre;">1 Thread(s) over 1000 Generations</text></g><g class="g-xtitle"><text class="xtitle" x="350" y="473.9" text-anchor="middle" style="font-family: 'Courier New', monospace; font-size: 22px; fill: rgb(102, 51, 153); opacity: 1; font-weight: normal; white-space: pre;">Generations</text></g><g class="g-ytitle" transform="translate(1.306640625,0)"><text class="ytitle" transform="rotate(-90,16.69375,260)" x="16.69375" y="260" text-anchor="middle" style="font-family: 'Courier New', monospace; font-size: 22px; fill: rgb(102, 51, 153); opacity: 1; font-weight: normal; white-space: pre;">Milliseconds</text></g></g></svg>