<svg class="main-svg" xmlns="http://www.w3.org/2000/svg" xmlns:xlink="http://www.w3.org/1999/xlink" width="700" height="500" style="" viewBox="0 0 700 500"><rect x="0" y="0" width="700" height="500" style="fill: rgb(255, 255, 255); fill-opacity: 1;"/><defs id="defs-c15520"><g class="clips"><clipPath id="clipc15520xyplot" class="plotclip"><rect width="540" height="320"/></clipPath><clipPath class="axesclip" id="clipc15520x"><rect x="80" y="0" width="540" height="500"/></clipPath><clipPath class="axesclip" id="clipc15520y"><rect x="0" y="100" width="700" height="320"/></clipPath><clipPath class="axesclip" id="clipc15520xy"><rect x="80" y="100" width="540" height="320"/></clipPath></g><g class="gradients"/><g class="patterns"/></defs><g class="bglayer"><rect class="bg" x="80" y="100" width="540" height="320" style="fill: rgb(229, 236, 246); fill-opacity: 1; stroke-width: 0;"/></g><g class="layer-below"><g class="imagelayer"/><g class="shapelayer"/></g><g class="cartesianlayer"><g class="subplot xy"><g class="layer-subplot"><g class="shapelayer"/><g class="imagelayer"/></g><g class="minor-gridlayer"><g class="x"/><g class="y"/></g><g class="gridlayer"><g class="x"><path class="xgrid crisp" transform="translate(188.11,0)" d="M0,100v320" style="stroke: rgb(255, 255, 255); stroke-opacity: 1; stroke-width: 1px;"/><path class="xgrid crisp" transform="translate(296.22,0)" d="M0,100v320" style="stroke: rgb(255, 255, 255); stroke-opacity: 1; stroke-width: 1px;"/><path class="xgrid crisp" transform="translate(404.32,0)" d="M0,100v320" style="stroke: rgb(255, 255, 255); stroke-opacity: 1; stroke-width: 1px;"/><path class="xgrid crisp" transform="translate(512.4300000000001,0)" d="M0,100v320" style="stroke: rgb(255, 255, 255); stroke-opacity: 1; stroke-width: 1px;"/></g><g class="y"><path class="ygrid crisp" transform="translate(0,399.5)" d="M80,0h540" style="stroke: rgb(255, 255, 255); stroke-opacity: 1; stroke-width: 1px;"/><path class="ygrid crisp" transform="translate(0,354.5)" d="M80,0h540" style="stroke: rgb(255, 255, 255); stroke-opacity: 1; stroke-width: 1px;"/><path class="ygrid crisp" transform="translate(0,309.5)" d="M80,0h540" style="stroke: rgb(255, 255, 255); stroke-opacity: 1; stroke-width: 1px;"/><path class="ygrid crisp" transform="translate(0,264.5)" d="M80,0h540" style="stroke: rgb(255, 255, 255); stroke-opacity: 1; stroke-width: 1px;"/><path class="ygrid crisp" transform="translate(0,219.5)" d="M80,0h540" style="stroke: rgb(255, 255, 255); stroke-opacity: 1; stroke-width: 1px;"/><path class="ygrid crisp" transform="translate(0,174.5)" d="M80,0h540" style="stroke: rgb(255, 255, 255); stroke-opacity: 1; stroke-width: 1px;"/><path class="ygrid crisp" transform="translate(0,129.5)" d="M80,0h540" style="stroke: rgb(255, 255, 255); stroke-opacity: 1; stroke-width: 1px;"/></g></g><g class="zerolinelayer"><path class="xzl zl crisp" transform="translate(80,0)" d="M0,100v320" style="stroke: rgb(255, 255, 255); stroke-opacity: 1; stroke-width: 2px;"/></g><path class="xlines-below"/><path class="ylines-below"/><g class="overlines-below"/><g class="xaxislayer-below"/><g class="yaxislayer-below"/><g class="overaxes-below"/><g class="plot" transform="translate(80,100)" clip-path="url(#clipc15520xyplot)"><g class="scatterlayer mlayer"><g class="trace scatter trace2939c2" style="stroke-miterlimit: 2; opacity: 1;"><g class="fills"/><g class="errorbars"/><g class="lines"><path class="js-line" d="M0,304L2.16,232L2.7,187L3.24,119.5L3.78,191.5L4.32,65.5L4.86,187L5.95,169L6.49,164.5L7.03,146.5L7.57,173.5L8.11,191.5L8.65,169L9.19,191.5L9.73,187L10.27,196L10.81,214L11.35,151L12.43,191.5L12.97,16L14.05,209.5L14.59,218.5L15.14,169L15.68,232L17.3,209.5L17.84,214L18.38,200.5L18.92,227.5L20,200.5L20.54,209.5L21.08,187L21.62,209.5L22.16,70L22.7,196L23.24,169L23.78,191.5L24.32,205L24.86,200.5L25.41,200.5L25.95,200.5L26.49,218.5L27.57,214L28.11,241L28.65,245.5L29.19,241L30.81,209.5L31.35,232L32.43,209.5L32.97,245.5L34.05,218.5L34.59,214L35.68,223L36.22,187L37.3,218.5L37.84,182.5L38.38,182.5L38.92,205L40,245.5L40.54,232L42.16,191.5L42.7,227.5L43.24,227.5L43.78,254.5L44.32,214L44.86,227.5L45.41,29.5L46.49,227.5L47.03,232L48.65,155.5L49.19,200.5L51.35,250L51.89,227.5L52.43,214L52.97,236.5L53.51,236.5L54.05,259L54.59,214L55.14,218.5L55.68,227.5L56.76,241L57.3,263.5L58.38,232L58.92,236.5L59.46,200.5L60,241L61.62,205L62.16,232L62.7,209.5L63.24,227.5L64.32,236.5L64.86,227.5L65.41,214L65.95,232L66.49,241L67.03,218.5L67.57,218.5L68.11,205L68.65,245.5L69.19,232L69.73,200.5L70.27,227.5L70.81,218.5L71.35,200.5L73.51,218.5L74.05,236.5L74.59,227.5L75.14,236.5L75.68,245.5L76.22,227.5L77.3,232L77.84,227.5L78.92,236.5L79.46,259L80,259L80.54,232L81.08,227.5L81.62,200.5L83.24,254.5L83.78,232L84.32,223L84.86,232L85.41,236.5L85.95,227.5L87.03,236.5L87.57,218.5L88.11,223L88.65,214L89.73,236.5L90.27,232L90.81,223L91.35,191.5L92.43,236.5L92.97,241L93.51,250L94.05,227.5L94.59,227.5L95.14,232L95.68,223L96.22,232L97.3,227.5L97.84,232L98.38,241L98.92,218.5L100,232L100.54,218.5L101.08,223L101.62,218.5L102.7,205L103.24,214L103.78,223L104.32,205L105.41,236.5L105.95,218.5L107.03,227.5L107.57,232L108.11,254.5L108.65,232L110.27,196L110.81,236.5L111.35,227.5L111.89,241L112.97,218.5L113.51,232L114.05,218.5L114.59,236.5L115.14,245.5L115.68,164.5L116.22,236.5L116.76,232L117.3,214L117.84,209.5L118.38,227.5L118.92,250L119.46,227.5L120.54,241L121.08,236.5L122.7,236.5L123.24,223L124.86,245.5L125.41,245.5L125.95,236.5L126.49,250L127.03,250L127.57,232L128.11,241L128.65,263.5L129.19,259L129.73,223L130.27,223L130.81,133L131.35,245.5L131.89,236.5L132.43,169L133.51,232L134.05,164.5L135.14,227.5L135.68,250L136.76,218.5L137.3,227.5L137.84,241L138.38,236.5L138.92,241L139.46,232L140,236.5L140.54,196L141.08,241L141.62,232L142.16,254.5L143.24,182.5L143.78,218.5L144.32,214L144.86,227.5L145.41,191.5L145.95,218.5L146.49,218.5L147.03,232L147.57,236.5L148.11,259L149.19,232L149.73,218.5L150.81,236.5L151.35,223L151.89,227.5L152.43,191.5L152.97,236.5L153.51,223L154.05,232L154.59,236.5L155.14,232L156.76,223L157.3,250L157.84,223L158.38,241L158.92,223L159.46,227.5L160,245.5L160.54,250L161.08,232L161.62,223L162.16,232L162.7,232L163.24,236.5L163.78,227.5L164.32,241L165.41,227.5L165.95,232L166.49,232L167.03,236.5L168.11,236.5L168.65,232L169.19,245.5L169.73,236.5L170.27,232L170.81,218.5L171.89,250L172.43,223L172.97,205L173.51,232L174.59,218.5L175.14,155.5L176.22,227.5L176.76,218.5L177.3,232L177.84,200.5L178.38,205L178.92,223L180,236.5L180.54,227.5L181.08,209.5L181.62,218.5L182.16,214L182.7,218.5L183.24,223L183.78,209.5L184.86,232L185.41,232L186.49,232L187.03,178L187.57,236.5L188.11,223L188.65,214L190.27,232L190.81,218.5L191.89,236.5L192.43,245.5L192.97,218.5L193.51,223L194.05,218.5L194.59,227.5L195.14,223L196.22,250L196.76,241L197.3,254.5L197.84,223L198.38,223L198.92,209.5L199.46,214L200,205L200.54,227.5L201.08,218.5L202.16,254.5L202.7,236.5L203.24,205L203.78,232L204.32,196L204.86,214L205.41,218.5L205.95,236.5L206.49,227.5L207.03,232L207.57,223L208.11,187L209.19,236.5L209.73,250L210.27,241L210.81,214L211.35,236.5L211.89,227.5L212.43,232L212.97,223L214.05,218.5L214.59,173.5L215.68,241L216.22,227.5L216.76,227.5L217.3,218.5L218.92,245.5L219.46,236.5L220.54,250L221.08,232L221.62,263.5L222.16,236.5L223.24,209.5L223.78,191.5L225.41,232L225.95,205L226.49,227.5L227.03,223L227.57,223L228.11,223L228.65,241L229.19,263.5L229.73,259L230.27,227.5L230.81,259L231.35,223L232.43,236.5L232.97,232L233.51,223L234.05,227.5L235.14,241L235.68,223L236.22,232L236.76,218.5L237.3,227.5L237.84,205L238.92,259L239.46,232L240,196L240.54,263.5L241.08,254.5L241.62,263.5L242.16,227.5L242.7,236.5L243.24,254.5L243.78,227.5L244.32,236.5L244.86,236.5L245.41,236.5L245.95,227.5L246.49,245.5L247.03,232L247.57,101.5L248.11,245.5L249.19,223L249.73,227.5L250.27,250L250.81,227.5L251.35,232L251.89,263.5L252.43,227.5L252.97,263.5L253.51,227.5L254.05,259L254.59,268L255.14,236.5L256.22,227.5L256.76,142L257.3,232L257.84,209.5L258.38,241L259.46,223L260,227.5L260.54,268L261.08,236.5L261.62,223L262.16,259L263.24,218.5L263.78,254.5L264.32,227.5L264.86,232L265.41,218.5L265.95,205L266.49,223L268.11,236.5L268.65,227.5L269.19,259L269.73,214L270.81,241L271.35,232L271.89,259L272.43,250L272.97,227.5L273.51,236.5L274.05,232L274.59,232L275.14,236.5L275.68,232L276.22,236.5L277.3,227.5L277.84,214L278.92,227.5L279.46,232L280,241L280.54,232L281.08,223L281.62,232L282.16,232L282.7,227.5L283.24,241L283.78,232L284.32,245.5L284.86,241L285.41,209.5L285.95,209.5L286.49,218.5L288.11,232L288.65,218.5L289.19,218.5L289.73,223L290.27,223L290.81,205L291.35,200.5L291.89,209.5L292.43,146.5L292.97,214L293.51,205L294.05,227.5L294.59,214L295.14,218.5L295.68,209.5L296.22,223L296.76,205L297.84,227.5L298.38,209.5L299.46,223L300,223L300.54,218.5L301.08,205L301.62,218.5L302.16,205L303.24,232L303.78,227.5L304.32,232L304.86,245.5L305.41,218.5L305.95,227.5L306.49,209.5L307.57,232L308.11,227.5L308.65,209.5L309.19,232L309.73,236.5L310.27,232L310.81,232L311.35,268L311.89,268L312.43,214L312.97,223L313.51,178L314.59,263.5L315.14,214L315.68,209.5L316.22,214L317.84,259L318.38,232L319.46,241L320,232L320.54,227.5L321.08,254.5L322.16,223L322.7,223L323.24,209.5L323.78,259L324.32,218.5L324.86,259L325.41,227.5L325.95,232L326.49,218.5L327.57,227.5L328.11,214L328.65,218.5L329.19,232L330.81,214L331.35,227.5L331.89,232L332.43,205L334.05,250L334.59,250L335.14,146.5L335.68,232L336.22,218.5L336.76,236.5L337.84,214L338.38,245.5L340,191.5L340.54,232L341.08,254.5L341.62,214L342.16,191.5L342.7,227.5L343.24,223L343.78,227.5L344.32,218.5L344.86,223L345.41,227.5L345.95,223L346.49,227.5L347.03,245.5L347.57,173.5L348.11,200.5L348.65,209.5L349.19,254.5L349.73,227.5L350.27,250L350.81,236.5L351.35,250L351.89,214L353.51,223L354.05,254.5L354.59,250L355.14,236.5L355.68,268L356.22,232L356.76,232L357.3,245.5L358.38,223L358.92,254.5L360,223L360.54,227.5L361.08,245.5L361.62,241L362.16,214L363.24,214L363.78,250L364.32,227.5L364.86,232L365.41,241L365.95,259L366.49,250L367.03,209.5L367.57,263.5L369.19,223L369.73,236.5L370.81,214L371.35,245.5L372.43,236.5L372.97,250L373.51,214L374.05,250L375.14,214L375.68,245.5L377.3,187L377.84,218.5L378.38,236.5L378.92,218.5L379.46,236.5L380,214L380.54,245.5L381.08,223L381.62,214L382.16,218.5L382.7,232L383.24,205L384.86,232L385.41,214L385.95,205L386.49,227.5L387.03,223L387.57,245.5L388.11,218.5L388.65,227.5L389.19,232L389.73,227.5L390.27,232L391.35,232L391.89,200.5L392.43,101.5L392.97,191.5L394.05,223L394.59,223L395.14,218.5L395.68,200.5L397.3,227.5L397.84,223L398.38,214L398.92,268L399.46,200.5L400,227.5L400.54,214L401.08,241L402.16,218.5L402.7,250L403.24,227.5L403.78,241L404.32,245.5L404.86,241L405.41,245.5L405.95,268L407.03,223L407.57,236.5L408.65,236.5L409.19,223L409.73,187L410.27,241L411.35,241L411.89,268L412.97,241L413.51,241L414.59,241L415.14,236.5L415.68,218.5L416.22,241L416.76,241L417.3,232L418.38,263.5L418.92,232L420,268L420.54,227.5L421.08,223L421.62,232L422.16,227.5L422.7,254.5L423.24,227.5L423.78,236.5L424.32,263.5L425.41,227.5L425.95,250L426.49,209.5L427.03,227.5L427.57,227.5L428.11,223L428.65,223L429.19,200.5L430.81,263.5L431.35,259L431.89,263.5L432.43,214L434.05,236.5L434.59,236.5L435.14,214L435.68,223L436.22,227.5L436.76,205L438.38,263.5L438.92,245.5L439.46,263.5L440,232L440.54,223L441.08,268L442.16,254.5L442.7,218.5L443.24,241L443.78,205L444.86,196L445.41,214L445.95,254.5L446.49,236.5L447.57,209.5L448.11,227.5L449.19,223L449.73,236.5L450.27,241L450.81,232L451.35,241L451.89,232L452.43,232L452.97,214L453.51,205L454.05,232L455.14,214L455.68,227.5L456.22,236.5L456.76,263.5L457.84,223L458.38,241L458.92,245.5L459.46,209.5L460.54,232L461.08,227.5L461.62,227.5L462.16,241L462.7,218.5L463.24,241L463.78,205L464.32,218.5L464.86,223L465.41,218.5L465.95,259L466.49,214L467.03,232L467.57,263.5L468.11,232L469.19,236.5L469.73,223L470.27,214L470.81,232L471.35,241L471.89,218.5L472.97,263.5L473.51,205L474.59,236.5L475.14,232L475.68,218.5L476.22,223L476.76,232L477.3,218.5L477.84,241L478.38,218.5L478.92,223L479.46,209.5L480,205L480.54,164.5L481.08,268L481.62,232L482.16,232L482.7,241L483.24,232L483.78,227.5L484.32,232L484.86,232L485.41,178L485.95,227.5L486.49,218.5L487.03,209.5L488.11,263.5L488.65,236.5L489.19,259L489.73,254.5L490.27,232L491.35,232L491.89,236.5L492.43,214L492.97,232L494.05,200.5L494.59,245.5L495.14,227.5L495.68,236.5L496.76,209.5L497.3,187L498.38,209.5L498.92,209.5L499.46,209.5L500,191.5L500.54,187L501.08,232L501.62,227.5L502.16,209.5L502.7,259L503.24,254.5L503.78,209.5L504.32,254.5L504.86,223L505.95,223L506.49,209.5L507.57,223L508.11,214L508.65,214L509.19,209.5L509.73,205L510.27,223L510.81,218.5L511.35,227.5L511.89,232L512.43,223L512.97,218.5L513.51,223L514.05,259L514.59,241L515.14,214L515.68,218.5L516.22,214L516.76,218.5L517.3,232L517.84,227.5L518.38,259L519.46,227.5L520,173.5L520.54,182.5L521.08,232L522.16,214L522.7,218.5L523.24,232L523.78,205L524.32,254.5L524.86,227.5L525.41,223L525.95,178L526.49,227.5L527.03,223L527.57,205L528.11,232L528.65,223L529.19,227.5L529.73,223L530.27,245.5L530.81,245.5L531.35,254.5L531.89,254.5L532.43,236.5L532.97,259L533.51,241L534.05,227.5L534.59,232L535.14,236.5L535.68,232L536.22,241L536.76,268L537.3,241L537.84,263.5L538.38,259L538.92,218.5L539.46,263.5L540,196" style="vector-effect: none; fill: none; stroke: rgb(99, 110, 250); stroke-opacity: 1; stroke-width: 2px; opacity: 1;"/></g><g class="points"/><g class="text"/></g></g></g><g class="overplot"/><path class="xlines-above crisp" d="M0,0" style="fill: none;"/><path class="ylines-above crisp" d="M0,0" style="fill: none;"/><g class="overlines-above"/><g class="xaxislayer-above"><g class="xtick"><text text-anchor="middle" x="0" y="439" transform="translate(80,0)" style="font-family: 'Courier New', monospace; font-size: 18px; fill: rgb(102, 51, 153); fill-opacity: 1; white-space: pre; opacity: 1;">0</text></g><g class="xtick"><text text-anchor="middle" x="0" y="439" style="font-family: 'Courier New', monospace; font-size: 18px; fill: rgb(102, 51, 153); fill-opacity: 1; white-space: pre; opacity: 1;" transform="translate(188.11,0)">200</text></g><g class="xtick"><text text-anchor="middle" x="0" y="439" style="font-family: 'Courier New', monospace; font-size: 18px; fill: rgb(102, 51, 153); fill-opacity: 1; white-space: pre; opacity: 1;" transform="translate(296.22,0)">400</text></g><g class="xtick"><text text-anchor="middle" x="0" y="439" style="font-family: 'Courier New', monospace; font-size: 18px; fill: rgb(102, 51, 153); fill-opacity: 1; white-space: pre; opacity: 1;" transform="translate(404.32,0)">600</text></g><g class="xtick"><text text-anchor="middle" x="0" y="439" style="font-family: 'Courier New', monospace; font-size: 18px; fill: rgb(102, 51, 153); fill-opacity: 1; white-space: pre; opacity: 1;" transform="translate(512.4300000000001,0)">800</text></g></g><g class="yaxislayer-above"><g class="ytick"><text text-anchor="end" x="79" y="6.3" transform="translate(0,399.5)" style="font-family: 'Courier New', monospace; font-size: 18px; fill: rgb(102, 51, 153); fill-opacity: 1; white-space: pre; opacity: 1;">20</text></g><g class="ytick"><text text-anchor="end" x="79" y="6.3" style="font-family: 'Courier New', monospace; font-size: 18px; fill: rgb(102, 51, 153); fill-opacity: 1; white-space: pre; opacity: 1;" transform="translate(0,354.5)">30</text></g><g class="ytick"><text text-anchor="end" x="79" y="6.3" style="font-family: 'Courier New', monospace; font-size: 18px; fill: rgb(102, 51, 153); fill-opacity: 1; white-space: pre; opacity: 1;" transform="translate(0,309.5)">40</text></g><g class="ytick"><text text-anchor="end" x="79" y="6.3" style="font-family: 'Courier New', monospace; font-size: 18px; fill: rgb(102, 51, 153); fill-opacity: 1; white-space: pre; opacity: 1;" transform="translate(0,264.5)">50</text></g><g class="ytick"><text text-anchor="end" x="79" y="6.3" style="font-family: 'Courier New', monospace; font-size: 18px; fill: rgb(102, 51, 153); fill-opacity: 1; white-space: pre; opacity: 1;" transform="translate(0,219.5)">60</text></g><g class="ytick"><text text-anchor="end" x="79" y="6.3" style="font-family: 'Courier New', monospace; font-size: 18px; fill: rgb(102, 51, 153); fill-opacity: 1; white-space: pre; opacity: 1;" transform="translate(0,174.5)">70</text></g><g class="ytick"><text text-anchor="end" x="79" y="6.3" style="font-family: 'Courier New', monospace; font-size: 18px; fill: rgb(102, 51, 153); fill-opacity: 1; white-space: pre; opacity: 1;" transform="translate(0,129.5)">80</text></g></g><g class="overaxes-above"/></g></g><g class="polarlayer"/><g class="smithlayer"/><g class="ternarylayer"/><g class="geolayer"/><g class="funnelarealayer"/><g class="pielayer"/><g class="iciclelayer"/><g class="treemaplayer"/><g class="sunburstlayer"/><g class="glimages"/><defs id="topdefs-c15520"><g class="clips"/></defs><g class="layer-above"><g class="imagelayer"/><g class="shapelayer"/></g><g class="infolayer"><g class="g-gtitle"><text class="gtitle" x="35" y="50" text-anchor="start" dy="0em" style="font-family: 'Courier New', monospace; font-size: 25px; fill: rgb(102, 51, 153); opacity: 1; font-weight: normal; white-space: pre;">4 Thread(s) over 1000 Generations</text></g><g class="g-xtitle"><text class="xtitle" x="350" y="473.9" text-anchor="middle" style="font-family: 'Courier New', monospace; font-size: 22px; fill: rgb(102, 51, 153); opacity: 1; font-weight: normal; white-space: pre;">Generations</text></g><g class="g-ytitle"><text class="ytitle" transform="rotate(-90,27.490625,260)" x="27.490625" y="260" text-anchor="middle" style="font-family: 'Courier New', monospace; font-size: 22px; fill: rgb(102, 51, 153); opacity: 1; font-weight: normal; white-space: pre;">Milliseconds</text></g></g></svg>