<svg class="main-svg" xmlns="http://www.w3.org/2000/svg" xmlns:xlink="http://www.w3.org/1999/xlink" width="700" height="500" style="" viewBox="0 0 700 500"><rect x="0" y="0" width="700" height="500" style="fill: rgb(255, 255, 255); fill-opacity: 1;"/><defs id="defs-9d3d49"><g class="clips"><clipPath id="clip9d3d49xyplot" class="plotclip"><rect width="540" height="320"/></clipPath><clipPath class="axesclip" id="clip9d3d49x"><rect x="80" y="0" width="540" height="500"/></clipPath><clipPath class="axesclip" id="clip9d3d49y"><rect x="0" y="100" width="700" height="320"/></clipPath><clipPath class="axesclip" id="clip9d3d49xy"><rect x="80" y="100" width="540" height="320"/></clipPath></g><g class="gradients"/><g class="patterns"/></defs><g class="bglayer"><rect class="bg" x="80" y="100" width="540" height="320" style="fill: rgb(229, 236, 246); fill-opacity: 1; stroke-width: 0;"/></g><g class="layer-below"><g class="imagelayer"/><g class="shapelayer"/></g><g class="cartesianlayer"><g class="subplot xy"><g class="layer-subplot"><g class="shapelayer"/><g class="imagelayer"/></g><g class="minor-gridlayer"><g class="x"/><g class="y"/></g><g class="gridlayer"><g class="x"><path class="xgrid crisp" transform="translate(188.11,0)" d="M0,100v320" style="stroke: rgb(255, 255, 255); stroke-opacity: 1; stroke-width: 1px;"/><path class="xgrid crisp" transform="translate(296.22,0)" d="M0,100v320" style="stroke: rgb(255, 255, 255); stroke-opacity: 1; stroke-width: 1px;"/><path class="xgrid crisp" transform="translate(404.32,0)" d="M0,100v320" style="stroke: rgb(255, 255, 255); stroke-opacity: 1; stroke-width: 1px;"/><path class="xgrid crisp" transform="translate(512.4300000000001,0)" d="M0,100v320" style="stroke: rgb(255, 255, 255); stroke-opacity: 1; stroke-width: 1px;"/></g><g class="y"><path class="ygrid crisp" transform="translate(0,391.48)" d="M80,0h540" style="stroke: rgb(255, 255, 255); stroke-opacity: 1; stroke-width: 1px;"/><path class="ygrid crisp" transform="translate(0,349.74)" d="M80,0h540" style="stroke: rgb(255, 255, 255); stroke-opacity: 1; stroke-width: 1px;"/><path class="ygrid crisp" transform="translate(0,308)" d="M80,0h540" style="stroke: rgb(255, 255, 255); stroke-opacity: 1; stroke-width: 1px;"/><path class="ygrid crisp" transform="translate(0,266.26)" d="M80,0h540" style="stroke: rgb(255, 255, 255); stroke-opacity: 1; stroke-width: 1px;"/><path class="ygrid crisp" transform="translate(0,224.51999999999998)" d="M80,0h540" style="stroke: rgb(255, 255, 255); stroke-opacity: 1; stroke-width: 1px;"/><path class="ygrid crisp" transform="translate(0,182.78)" d="M80,0h540" style="stroke: rgb(255, 255, 255); stroke-opacity: 1; stroke-width: 1px;"/><path class="ygrid crisp" transform="translate(0,141.04)" d="M80,0h540" style="stroke: rgb(255, 255, 255); stroke-opacity: 1; stroke-width: 1px;"/></g></g><g class="zerolinelayer"><path class="xzl zl crisp" transform="translate(80,0)" d="M0,100v320" style="stroke: rgb(255, 255, 255); stroke-opacity: 1; stroke-width: 2px;"/></g><path class="xlines-below"/><path class="ylines-below"/><g class="overlines-below"/><g class="xaxislayer-below"/><g class="yaxislayer-below"/><g class="overaxes-below"/><g class="plot" transform="translate(80,100)" clip-path="url(#clip9d3d49xyplot)"><g class="scatterlayer mlayer"><g class="trace scatter trace8effb2" style="stroke-miterlimit: 2; opacity: 1;"><g class="fills"/><g class="errorbars"/><g class="lines"><path class="js-line" d="M0,304L1.62,191.3L2.16,233.04L3.24,178.78L3.78,199.65L4.32,199.65L4.86,174.61L5.41,170.43L5.95,137.04L6.49,137.04L7.03,120.35L7.57,212.17L8.11,141.22L8.65,78.61L9.19,157.91L9.73,182.96L10.27,128.7L10.81,195.48L11.35,99.48L12.43,270.61L12.97,145.39L13.51,266.43L14.05,170.43L15.14,233.04L15.68,224.7L16.22,220.52L16.76,224.7L17.3,258.09L17.84,195.48L18.38,228.87L18.92,195.48L19.46,174.61L20,212.17L20.54,241.39L21.08,228.87L21.62,241.39L22.16,195.48L22.7,107.83L23.24,228.87L23.78,212.17L24.32,216.35L24.86,237.22L25.41,124.52L25.95,203.83L26.49,262.26L27.03,233.04L27.57,249.74L28.11,228.87L28.65,278.96L29.19,216.35L30.81,295.65L31.35,233.04L32.43,203.83L32.97,149.57L33.51,274.78L34.05,228.87L34.59,237.22L35.14,224.7L35.68,278.96L36.76,266.43L37.3,170.43L37.84,258.09L38.38,132.87L38.92,233.04L39.46,170.43L40.54,203.83L41.08,199.65L41.62,166.26L42.16,262.26L43.24,57.74L43.78,241.39L44.86,216.35L45.41,233.04L46.49,174.61L47.03,245.57L47.57,95.3L48.11,187.13L49.19,278.96L49.73,174.61L50.27,191.3L50.81,153.74L51.89,237.22L52.43,195.48L52.97,182.96L53.51,191.3L54.05,99.48L54.59,120.35L55.14,245.57L56.22,195.48L56.76,253.91L57.3,212.17L57.84,70.26L58.92,233.04L59.46,174.61L60,262.26L60.54,237.22L61.08,253.91L61.62,95.3L62.16,241.39L62.7,270.61L63.24,237.22L64.32,128.7L64.86,220.52L65.41,157.91L65.95,220.52L66.49,245.57L67.03,216.35L67.57,103.65L68.11,199.65L68.65,220.52L69.19,86.96L69.73,145.39L70.27,78.61L71.35,233.04L71.89,228.87L72.43,132.87L72.97,178.78L74.05,233.04L74.59,187.13L75.14,78.61L75.68,162.09L76.22,228.87L76.76,166.26L77.3,249.74L77.84,187.13L78.92,141.22L79.46,208L80,95.3L80.54,191.3L81.08,182.96L81.62,191.3L82.16,212.17L82.7,86.96L83.78,212.17L84.32,149.57L84.86,270.61L85.41,228.87L85.95,187.13L86.49,216.35L87.03,128.7L88.11,120.35L88.65,224.7L89.19,174.61L89.73,191.3L90.27,157.91L90.81,199.65L91.35,166.26L91.89,178.78L92.43,241.39L92.97,195.48L93.51,228.87L94.05,249.74L94.59,199.65L95.14,245.57L95.68,212.17L96.22,220.52L96.76,253.91L97.3,228.87L97.84,157.91L98.38,153.74L98.92,249.74L99.46,228.87L100,120.35L101.62,224.7L102.16,199.65L102.7,203.83L103.24,216.35L103.78,274.78L104.32,228.87L104.86,208L105.41,233.04L106.49,149.57L107.03,228.87L107.57,249.74L108.11,178.78L108.65,237.22L109.19,220.52L109.73,174.61L110.27,262.26L110.81,199.65L111.35,141.22L111.89,245.57L112.97,233.04L113.51,245.57L114.05,233.04L114.59,182.96L115.14,249.74L115.68,174.61L116.22,212.17L116.76,141.22L117.3,241.39L117.84,212.17L118.38,212.17L120,278.96L120.54,174.61L121.08,116.17L121.62,132.87L122.16,157.91L122.7,224.7L123.24,220.52L123.78,174.61L124.32,174.61L124.86,162.09L125.41,228.87L125.95,145.39L126.49,137.04L127.03,149.57L127.57,278.96L128.11,241.39L128.65,208L129.19,187.13L129.73,199.65L130.27,203.83L130.81,191.3L131.35,124.52L131.89,233.04L132.43,237.22L132.97,199.65L134.05,124.52L134.59,245.57L135.14,228.87L135.68,182.96L136.22,237.22L136.76,195.48L137.3,187.13L137.84,153.74L138.92,270.61L139.46,208L140,182.96L140.54,212.17L141.08,212.17L141.62,224.7L142.16,224.7L142.7,237.22L143.24,220.52L143.78,228.87L144.32,233.04L144.86,128.7L146.49,283.13L147.03,233.04L147.57,228.87L148.11,270.61L148.65,153.74L149.19,237.22L149.73,128.7L150.27,187.13L150.81,187.13L151.35,182.96L151.89,170.43L152.43,187.13L152.97,212.17L153.51,141.22L154.05,137.04L154.59,233.04L155.14,195.48L155.68,241.39L156.22,187.13L156.76,249.74L157.3,208L157.84,212.17L158.38,237.22L158.92,149.57L159.46,182.96L160,124.52L162.16,212.17L162.7,178.78L163.24,237.22L163.78,212.17L164.32,241.39L164.86,78.61L165.41,266.43L165.95,212.17L166.49,182.96L167.03,241.39L167.57,212.17L168.11,170.43L168.65,224.7L169.73,145.39L170.27,287.3L171.35,162.09L171.89,237.22L172.43,216.35L172.97,228.87L173.51,220.52L174.05,228.87L174.59,216.35L175.14,224.7L175.68,237.22L176.22,174.61L177.3,249.74L177.84,224.7L178.38,153.74L178.92,216.35L179.46,212.17L180,233.04L181.08,258.09L181.62,191.3L182.16,157.91L182.7,174.61L183.24,182.96L183.78,224.7L184.32,278.96L184.86,191.3L185.95,233.04L186.49,162.09L187.57,245.57L188.11,199.65L188.65,203.83L189.19,224.7L189.73,224.7L190.27,262.26L190.81,241.39L191.35,274.78L191.89,237.22L192.43,262.26L192.97,224.7L193.51,237.22L194.05,253.91L195.14,182.96L195.68,299.83L196.22,162.09L196.76,266.43L197.84,212.17L198.38,245.57L198.92,253.91L199.46,241.39L200,174.61L200.54,203.83L201.62,157.91L202.16,245.57L203.24,149.57L203.78,182.96L204.32,128.7L204.86,233.04L205.41,233.04L205.95,262.26L207.57,153.74L208.11,274.78L208.65,82.78L209.19,220.52L209.73,237.22L210.27,112L210.81,208L211.35,132.87L211.89,241.39L212.43,187.13L214.05,262.26L214.59,224.7L215.14,191.3L215.68,245.57L216.22,220.52L216.76,145.39L217.3,162.09L217.84,258.09L218.38,262.26L218.92,283.13L219.46,266.43L220,191.3L221.62,266.43L222.16,233.04L222.7,157.91L223.24,228.87L224.86,145.39L225.41,187.13L225.95,253.91L226.49,199.65L227.03,253.91L227.57,162.09L228.65,245.57L229.19,237.22L229.73,191.3L230.27,220.52L230.81,166.26L231.35,199.65L231.89,145.39L232.43,253.91L232.97,212.17L233.51,253.91L234.05,91.13L234.59,270.61L235.14,266.43L235.68,245.57L236.22,216.35L236.76,233.04L237.3,195.48L237.84,266.43L238.38,162.09L238.92,245.57L239.46,120.35L240,170.43L240.54,208L241.08,191.3L241.62,245.57L242.16,149.57L243.78,262.26L244.32,241.39L244.86,220.52L245.41,224.7L245.95,245.57L247.03,182.96L247.57,224.7L248.11,141.22L248.65,182.96L249.19,216.35L249.73,182.96L250.27,241.39L250.81,187.13L251.35,228.87L251.89,199.65L252.43,241.39L252.97,191.3L253.51,228.87L254.05,216.35L254.59,228.87L255.14,270.61L255.68,245.57L256.22,182.96L256.76,270.61L257.3,182.96L257.84,245.57L258.92,212.17L259.46,220.52L260,241.39L260.54,233.04L261.08,262.26L261.62,145.39L262.16,283.13L262.7,187.13L263.24,224.7L263.78,116.17L264.32,203.83L264.86,195.48L265.41,128.7L266.49,203.83L267.03,95.3L268.65,253.91L269.19,199.65L269.73,212.17L270.27,249.74L270.81,212.17L271.35,270.61L271.89,166.26L272.43,258.09L272.97,224.7L273.51,132.87L274.05,107.83L274.59,191.3L275.14,112L275.68,241.39L276.22,195.48L276.76,245.57L277.3,174.61L277.84,233.04L278.38,228.87L278.92,249.74L279.46,266.43L280,253.91L280.54,216.35L281.08,233.04L281.62,241.39L282.16,132.87L283.24,203.83L283.78,120.35L284.32,103.65L284.86,203.83L285.41,228.87L285.95,208L286.49,203.83L287.03,245.57L287.57,157.91L288.11,174.61L288.65,178.78L289.19,132.87L289.73,178.78L290.27,132.87L290.81,233.04L291.35,195.48L291.89,237.22L292.43,99.48L292.97,174.61L294.05,224.7L294.59,182.96L295.14,233.04L295.68,228.87L296.22,253.91L296.76,182.96L297.3,220.52L297.84,153.74L298.38,195.48L299.46,262.26L300,228.87L300.54,233.04L301.08,228.87L301.62,228.87L302.16,208L302.7,237.22L303.24,178.78L303.78,103.65L304.32,191.3L304.86,141.22L305.41,195.48L305.95,182.96L306.49,216.35L307.03,195.48L307.57,124.52L308.65,228.87L309.19,270.61L309.73,191.3L310.27,203.83L310.81,224.7L311.89,182.96L312.43,224.7L312.97,124.52L313.51,233.04L314.59,199.65L315.14,266.43L316.76,199.65L317.3,216.35L317.84,199.65L318.38,203.83L318.92,249.74L319.46,153.74L320,274.78L320.54,166.26L321.08,212.17L321.62,199.65L322.16,253.91L322.7,61.91L323.24,241.39L323.78,203.83L324.32,245.57L324.86,274.78L325.41,249.74L326.49,170.43L327.03,220.52L327.57,262.26L328.11,212.17L328.65,258.09L329.19,170.43L329.73,241.39L330.27,228.87L330.81,258.09L331.35,253.91L331.89,66.09L333.51,233.04L334.05,237.22L335.68,132.87L336.22,178.78L337.3,233.04L337.84,153.74L339.46,237.22L340,141.22L341.08,241.39L341.62,16L342.16,228.87L342.7,203.83L343.24,208L343.78,220.52L344.32,178.78L344.86,258.09L345.41,182.96L345.95,208L346.49,199.65L347.03,208L347.57,237.22L348.11,233.04L348.65,212.17L349.19,178.78L349.73,249.74L350.81,212.17L351.35,203.83L352.43,262.26L352.97,208L353.51,124.52L354.05,170.43L354.59,233.04L355.14,228.87L355.68,220.52L356.22,228.87L356.76,249.74L357.3,174.61L357.84,253.91L358.38,203.83L358.92,245.57L360,174.61L360.54,295.65L361.08,182.96L361.62,253.91L362.16,266.43L362.7,228.87L363.24,128.7L363.78,228.87L364.32,291.48L364.86,283.13L365.41,253.91L365.95,283.13L366.49,262.26L368.11,149.57L368.65,195.48L370.27,270.61L370.81,203.83L371.35,149.57L371.89,253.91L372.97,174.61L373.51,237.22L374.59,195.48L375.14,224.7L375.68,199.65L376.22,249.74L376.76,166.26L377.3,283.13L378.38,237.22L378.92,174.61L379.46,249.74L380,237.22L380.54,220.52L381.08,141.22L381.62,228.87L382.16,166.26L382.7,212.17L383.78,141.22L384.32,224.7L384.86,253.91L385.41,228.87L385.95,237.22L386.49,174.61L387.03,262.26L387.57,233.04L388.11,216.35L388.65,162.09L389.19,212.17L389.73,162.09L390.27,178.78L390.81,224.7L391.35,237.22L391.89,295.65L393.51,187.13L394.05,212.17L394.59,203.83L395.14,249.74L395.68,241.39L396.22,291.48L396.76,162.09L397.3,208L397.84,258.09L398.38,208L398.92,241.39L399.46,245.57L400,174.61L401.62,270.61L402.16,278.96L403.78,187.13L404.32,220.52L404.86,270.61L405.41,241.39L405.95,270.61L406.49,262.26L407.03,237.22L407.57,266.43L408.11,157.91L408.65,270.61L409.19,241.39L409.73,162.09L410.81,258.09L411.35,208L411.89,162.09L412.43,203.83L412.97,228.87L413.51,216.35L414.59,149.57L415.14,262.26L415.68,157.91L416.22,233.04L416.76,128.7L417.3,170.43L417.84,157.91L418.38,191.3L418.92,228.87L419.46,208L420,262.26L420.54,233.04L421.62,112L422.16,237.22L423.78,212.17L424.32,216.35L424.86,174.61L425.41,233.04L425.95,174.61L426.49,203.83L427.03,203.83L427.57,220.52L428.65,258.09L429.19,233.04L429.73,253.91L430.27,237.22L431.35,203.83L431.89,241.39L432.43,249.74L432.97,203.83L434.05,266.43L434.59,220.52L435.14,191.3L435.68,224.7L436.22,245.57L436.76,216.35L437.3,233.04L437.84,153.74L438.92,233.04L439.46,212.17L440.54,249.74L441.08,166.26L442.16,270.61L442.7,224.7L443.24,216.35L443.78,157.91L444.32,195.48L444.86,141.22L445.41,295.65L445.95,162.09L447.03,258.09L447.57,208L448.65,212.17L449.19,262.26L449.73,258.09L450.27,224.7L450.81,274.78L451.35,253.91L451.89,245.57L452.43,270.61L454.05,145.39L454.59,258.09L455.14,191.3L455.68,228.87L456.22,253.91L456.76,195.48L457.3,145.39L457.84,162.09L458.38,199.65L458.92,66.09L459.46,220.52L460,278.96L460.54,78.61L461.62,245.57L462.16,233.04L462.7,153.74L463.78,253.91L464.32,216.35L464.86,208L465.41,228.87L465.95,295.65L466.49,258.09L467.03,233.04L467.57,245.57L468.11,278.96L468.65,266.43L469.19,212.17L469.73,212.17L470.27,278.96L470.81,208L471.35,262.26L472.43,208L472.97,228.87L473.51,266.43L474.05,237.22L474.59,237.22L475.14,162.09L475.68,258.09L476.22,220.52L476.76,203.83L477.3,299.83L478.38,224.7L478.92,241.39L479.46,233.04L480,241.39L480.54,237.22L481.08,258.09L482.16,228.87L482.7,174.61L483.24,187.13L483.78,245.57L484.32,191.3L484.86,228.87L485.41,233.04L485.95,128.7L487.03,253.91L487.57,253.91L488.65,182.96L489.19,191.3L489.73,182.96L490.27,220.52L490.81,241.39L491.35,166.26L491.89,212.17L492.43,174.61L492.97,220.52L493.51,145.39L494.05,237.22L494.59,162.09L495.14,103.65L495.68,178.78L496.22,199.65L496.76,103.65L497.3,99.48L497.84,208L498.38,224.7L498.92,208L499.46,233.04L500,166.26L500.54,174.61L501.08,195.48L501.62,187.13L502.16,195.48L502.7,178.78L503.24,128.7L503.78,220.52L504.32,195.48L504.86,212.17L505.95,149.57L506.49,233.04L507.03,233.04L507.57,270.61L508.11,170.43L508.65,199.65L509.19,203.83L509.73,187.13L510.27,57.74L510.81,220.52L511.35,203.83L511.89,228.87L512.43,166.26L512.97,174.61L513.51,203.83L514.59,266.43L515.14,191.3L515.68,208L516.22,278.96L516.76,203.83L517.3,237.22L517.84,24.35L518.38,237.22L518.92,233.04L519.46,195.48L520.54,182.96L521.08,241.39L521.62,274.78L522.16,112L522.7,149.57L523.24,120.35L523.78,241.39L524.32,212.17L524.86,157.91L525.41,120.35L525.95,178.78L526.49,178.78L527.03,216.35L527.57,153.74L528.11,187.13L529.19,99.48L529.73,141.22L531.35,195.48L531.89,191.3L532.43,153.74L532.97,191.3L533.51,208L534.05,258.09L534.59,120.35L535.14,195.48L535.68,228.87L536.22,124.52L536.76,241.39L537.3,166.26L537.84,153.74L538.38,120.35L538.92,203.83L539.46,116.17L540,191.3" style="vector-effect: none; fill: none; stroke: rgb(99, 110, 250); stroke-opacity: 1; stroke-width: 2px; opacity: 1;"/></g><g class="points"/><g class="text"/></g></g></g><g class="overplot"/><path class="xlines-above crisp" d="M0,0" style="fill: none;"/><path class="ylines-above crisp" d="M0,0" style="fill: none;"/><g class="overlines-above"/><g class="xaxislayer-above"><g class="xtick"><text text-anchor="middle" x="0" y="439" transform="translate(80,0)" style="font-family: 'Courier New', monospace; font-size: 18px; fill: rgb(102, 51, 153); fill-opacity: 1; white-space: pre; opacity: 1;">0</text></g><g class="xtick"><text text-anchor="middle" x="0" y="439" style="font-family: 'Courier New', monospace; font-size: 18px; fill: rgb(102, 51, 153); fill-opacity: 1; white-space: pre; opacity: 1;" transform="translate(188.11,0)">200</text></g><g class="xtick"><text text-anchor="middle" x="0" y="439" style="font-family: 'Courier New', monospace; font-size: 18px; fill: rgb(102, 51, 153); fill-opacity: 1; white-space: pre; opacity: 1;" transform="translate(296.22,0)">400</text></g><g class="xtick"><text text-anchor="middle" x="0" y="439" style="font-family: 'Courier New', monospace; font-size: 18px; fill: rgb(102, 51, 153); fill-opacity: 1; white-space: pre; opacity: 1;" transform="translate(404.32,0)">600</text></g><g class="xtick"><text text-anchor="middle" x="0" y="439" style="font-family: 'Courier New', monospace; font-size: 18px; fill: rgb(102, 51, 153); fill-opacity: 1; white-space: pre; opacity: 1;" transform="translate(512.4300000000001,0)">800</text></g></g><g class="yaxislayer-above"><g class="ytick"><text text-anchor="end" x="79" y="6.3" transform="translate(0,391.48)" style="font-family: 'Courier New', monospace; font-size: 18px; fill: rgb(102, 51, 153); fill-opacity: 1; white-space: pre; opacity: 1;">20</text></g><g class="ytick"><text text-anchor="end" x="79" y="6.3" style="font-family: 'Courier New', monospace; font-size: 18px; fill: rgb(102, 51, 153); fill-opacity: 1; white-space: pre; opacity: 1;" transform="translate(0,349.74)">30</text></g><g class="ytick"><text text-anchor="end" x="79" y="6.3" style="font-family: 'Courier New', monospace; font-size: 18px; fill: rgb(102, 51, 153); fill-opacity: 1; white-space: pre; opacity: 1;" transform="translate(0,308)">40</text></g><g class="ytick"><text text-anchor="end" x="79" y="6.3" style="font-family: 'Courier New', monospace; font-size: 18px; fill: rgb(102, 51, 153); fill-opacity: 1; white-space: pre; opacity: 1;" transform="translate(0,266.26)">50</text></g><g class="ytick"><text text-anchor="end" x="79" y="6.3" style="font-family: 'Courier New', monospace; font-size: 18px; fill: rgb(102, 51, 153); fill-opacity: 1; white-space: pre; opacity: 1;" transform="translate(0,224.51999999999998)">60</text></g><g class="ytick"><text text-anchor="end" x="79" y="6.3" style="font-family: 'Courier New', monospace; font-size: 18px; fill: rgb(102, 51, 153); fill-opacity: 1; white-space: pre; opacity: 1;" transform="translate(0,182.78)">70</text></g><g class="ytick"><text text-anchor="end" x="79" y="6.3" style="font-family: 'Courier New', monospace; font-size: 18px; fill: rgb(102, 51, 153); fill-opacity: 1; white-space: pre; opacity: 1;" transform="translate(0,141.04)">80</text></g></g><g class="overaxes-above"/></g></g><g class="polarlayer"/><g class="smithlayer"/><g class="ternarylayer"/><g class="geolayer"/><g class="funnelarealayer"/><g class="pielayer"/><g class="iciclelayer"/><g class="treemaplayer"/><g class="sunburstlayer"/><g class="glimages"/><defs id="topdefs-9d3d49"><g class="clips"/></defs><g class="layer-above"><g class="imagelayer"/><g class="shapelayer"/></g><g class="infolayer"><g class="g-gtitle"><text class="gtitle" x="35" y="50" text-anchor="start" dy="0em" style="font-family: 'Courier New', monospace; font-size: 25px; fill: rgb(102, 51, 153); opacity: 1; font-weight: normal; white-space: pre;">8 Thread(s) over 1000 Generations</text></g><g class="g-xtitle"><text class="xtitle" x="350" y="473.9" text-anchor="middle" style="font-family: 'Courier New', monospace; font-size: 22px; fill: rgb(102, 51, 153); opacity: 1; font-weight: normal; white-space: pre;">Generations</text></g><g class="g-ytitle"><text class="ytitle" transform="rotate(-90,27.490625,260)" x="27.490625" y="260" text-anchor="middle" style="font-family: 'Courier New', monospace; font-size: 22px; fill: rgb(102, 51, 153); opacity: 1; font-weight: normal; white-space: pre;">Milliseconds</text></g></g></svg>