<svg class="main-svg" xmlns="http://www.w3.org/2000/svg" xmlns:xlink="http://www.w3.org/1999/xlink" width="700" height="500" style="" viewBox="0 0 700 500"><rect x="0" y="0" width="700" height="500" style="fill: rgb(255, 255, 255); fill-opacity: 1;"/><defs id="defs-1ff5f7"><g class="clips"><clipPath id="clip1ff5f7xyplot" class="plotclip"><rect width="540" height="320"/></clipPath><clipPath class="axesclip" id="clip1ff5f7x"><rect x="80" y="0" width="540" height="500"/></clipPath><clipPath class="axesclip" id="clip1ff5f7y"><rect x="0" y="100" width="700" height="320"/></clipPath><clipPath class="axesclip" id="clip1ff5f7xy"><rect x="80" y="100" width="540" height="320"/></clipPath></g><g class="gradients"/><g class="patterns"/></defs><g class="bglayer"><rect class="bg" x="80" y="100" width="540" height="320" style="fill: rgb(229, 236, 246); fill-opacity: 1; stroke-width: 0;"/></g><g class="layer-below"><g class="imagelayer"/><g class="shapelayer"/></g><g class="cartesianlayer"><g class="subplot xy"><g class="layer-subplot"><g class="shapelayer"/><g class="imagelayer"/></g><g class="minor-gridlayer"><g class="x"/><g class="y"/></g><g class="gridlayer"><g class="x"><path class="xgrid crisp" transform="translate(188.11,0)" d="M0,100v320" style="stroke: rgb(255, 255, 255); stroke-opacity: 1; stroke-width: 1px;"/><path class="xgrid crisp" transform="translate(296.22,0)" d="M0,100v320" style="stroke: rgb(255, 255, 255); stroke-opacity: 1; stroke-width: 1px;"/><path class="xgrid crisp" transform="translate(404.32,0)" d="M0,100v320" style="stroke: rgb(255, 255, 255); stroke-opacity: 1; stroke-width: 1px;"/><path class="xgrid crisp" transform="translate(512.4300000000001,0)" d="M0,100v320" style="stroke: rgb(255, 255, 255); stroke-opacity: 1; stroke-width: 1px;"/></g><g class="y"><path class="ygrid crisp" transform="translate(0,415.29)" d="M80,0h540" style="stroke: rgb(255, 255, 255); stroke-opacity: 1; stroke-width: 1px;"/><path class="ygrid crisp" transform="translate(0,358.82)" d="M80,0h540" style="stroke: rgb(255, 255, 255); stroke-opacity: 1; stroke-width: 1px;"/><path class="ygrid crisp" transform="translate(0,302.35)" d="M80,0h540" style="stroke: rgb(255, 255, 255); stroke-opacity: 1; stroke-width: 1px;"/><path class="ygrid crisp" transform="translate(0,245.88)" d="M80,0h540" style="stroke: rgb(255, 255, 255); stroke-opacity: 1; stroke-width: 1px;"/><path class="ygrid crisp" transform="translate(0,189.41)" d="M80,0h540" style="stroke: rgb(255, 255, 255); stroke-opacity: 1; stroke-width: 1px;"/><path class="ygrid crisp" transform="translate(0,132.94)" d="M80,0h540" style="stroke: rgb(255, 255, 255); stroke-opacity: 1; stroke-width: 1px;"/></g></g><g class="zerolinelayer"><path class="xzl zl crisp" transform="translate(80,0)" d="M0,100v320" style="stroke: rgb(255, 255, 255); stroke-opacity: 1; stroke-width: 2px;"/></g><path class="xlines-below"/><path class="ylines-below"/><g class="overlines-below"/><g class="xaxislayer-below"/><g class="yaxislayer-below"/><g class="overaxes-below"/><g class="plot" transform="translate(80,100)" clip-path="url(#clip1ff5f7xyplot)"><g class="scatterlayer mlayer"><g class="trace scatter trace6f6596" style="stroke-miterlimit: 2; opacity: 1;"><g class="fills"/><g class="errorbars"/><g class="lines"><path class="js-line" d="M0,304L1.08,213.65L1.62,219.29L2.16,179.76L2.7,66.82L3.78,123.29L4.32,89.41L4.86,61.18L5.41,83.76L5.95,100.71L6.49,55.53L8.65,117.65L9.19,55.53L9.73,32.94L10.27,117.65L10.81,72.47L11.35,89.41L11.89,95.06L12.43,134.59L12.97,100.71L13.51,123.29L14.05,27.29L14.59,179.76L15.14,100.71L16.22,157.18L16.76,140.24L17.84,191.06L18.38,185.41L18.92,179.76L19.46,117.65L20.54,134.59L21.08,140.24L22.16,72.47L22.7,78.12L23.78,128.94L24.32,72.47L24.86,145.88L25.41,55.53L26.49,134.59L27.03,117.65L27.57,196.71L28.11,185.41L28.65,208L29.19,179.76L29.73,219.29L30.27,191.06L30.81,224.94L31.35,219.29L31.89,196.71L32.43,196.71L32.97,140.24L33.51,202.35L34.05,185.41L34.59,174.12L35.14,174.12L35.68,140.24L37.3,185.41L37.84,179.76L38.38,157.18L38.92,174.12L40,168.47L40.54,145.88L41.62,196.71L42.16,151.53L42.7,162.82L43.24,196.71L44.32,151.53L44.86,202.35L45.41,83.76L45.95,145.88L46.49,196.71L47.03,112L48.11,145.88L48.65,157.18L49.19,157.18L49.73,151.53L50.81,83.76L51.35,151.53L51.89,100.71L52.43,134.59L52.97,140.24L53.51,106.35L54.05,100.71L54.59,134.59L55.14,140.24L55.68,100.71L56.22,72.47L56.76,134.59L57.3,179.76L57.84,168.47L58.38,83.76L58.92,95.06L59.46,61.18L60,174.12L60.54,168.47L61.08,162.82L61.62,134.59L62.16,162.82L62.7,157.18L63.24,179.76L63.78,157.18L64.32,168.47L64.86,123.29L65.41,157.18L65.95,162.82L66.49,83.76L67.03,89.41L67.57,151.53L68.11,140.24L68.65,55.53L69.73,162.82L70.27,162.82L71.89,128.94L72.43,168.47L72.97,196.71L73.51,168.47L74.05,191.06L74.59,151.53L75.14,106.35L75.68,157.18L76.22,151.53L76.76,174.12L77.3,185.41L77.84,128.94L78.38,140.24L78.92,128.94L79.46,162.82L80,117.65L81.08,174.12L81.62,168.47L82.16,128.94L82.7,123.29L83.24,185.41L83.78,196.71L84.32,162.82L85.95,202.35L86.49,157.18L87.03,185.41L87.57,162.82L88.11,123.29L88.65,145.88L89.19,179.76L89.73,157.18L90.27,128.94L90.81,157.18L91.35,140.24L91.89,162.82L92.97,179.76L93.51,162.82L94.59,196.71L95.14,140.24L95.68,185.41L96.22,123.29L96.76,179.76L97.3,174.12L97.84,174.12L98.38,174.12L98.92,145.88L99.46,55.53L100,151.53L100.54,78.12L101.08,100.71L101.62,162.82L102.16,89.41L102.7,128.94L103.24,66.82L103.78,112L104.32,100.71L104.86,151.53L105.41,128.94L105.95,145.88L106.49,83.76L107.03,106.35L107.57,117.65L108.11,123.29L108.65,140.24L109.19,191.06L109.73,38.59L110.81,168.47L111.35,179.76L112.43,191.06L112.97,112L114.05,185.41L114.59,162.82L115.14,202.35L115.68,185.41L116.22,162.82L116.76,179.76L117.3,168.47L117.84,191.06L118.38,196.71L118.92,179.76L119.46,157.18L120,185.41L120.54,145.88L121.08,179.76L122.16,196.71L122.7,168.47L123.24,145.88L123.78,185.41L124.86,191.06L125.41,174.12L127.03,106.35L127.57,157.18L128.65,179.76L129.19,179.76L130.27,151.53L130.81,174.12L131.89,174.12L132.43,168.47L133.51,162.82L134.05,162.82L135.14,191.06L135.68,185.41L137.3,95.06L137.84,123.29L138.38,95.06L138.92,157.18L139.46,134.59L140,55.53L140.54,72.47L141.08,151.53L141.62,140.24L142.16,168.47L143.24,145.88L143.78,162.82L144.32,157.18L144.86,134.59L145.41,145.88L145.95,123.29L147.57,174.12L148.11,83.76L148.65,66.82L149.19,83.76L149.73,95.06L150.27,196.71L151.35,185.41L151.89,162.82L152.43,168.47L152.97,140.24L154.05,196.71L154.59,140.24L155.68,179.76L156.22,157.18L157.3,157.18L157.84,174.12L158.38,174.12L158.92,162.82L159.46,202.35L160,179.76L160.54,213.65L161.08,196.71L162.7,162.82L163.24,162.82L163.78,168.47L164.32,208L165.41,168.47L165.95,162.82L166.49,140.24L167.03,162.82L167.57,185.41L168.11,179.76L168.65,162.82L169.73,151.53L170.27,191.06L170.81,140.24L171.35,162.82L171.89,100.71L172.43,151.53L172.97,185.41L173.51,168.47L174.05,202.35L174.59,145.88L175.68,196.71L176.22,191.06L176.76,196.71L177.3,213.65L178.38,168.47L178.92,185.41L179.46,185.41L180,191.06L181.08,213.65L181.62,174.12L183.24,117.65L183.78,196.71L184.86,179.76L185.41,179.76L185.95,179.76L186.49,196.71L187.57,185.41L188.11,179.76L188.65,179.76L189.19,196.71L190.27,202.35L190.81,179.76L191.89,162.82L192.43,174.12L192.97,174.12L193.51,208L194.59,117.65L195.14,140.24L195.68,151.53L196.22,185.41L196.76,202.35L197.3,179.76L198.38,168.47L198.92,185.41L199.46,72.47L200,174.12L200.54,168.47L201.08,140.24L201.62,72.47L202.16,83.76L202.7,157.18L203.24,162.82L203.78,140.24L204.32,123.29L204.86,151.53L206.49,191.06L207.03,168.47L207.57,151.53L208.11,106.35L208.65,61.18L209.19,140.24L210.81,66.82L211.35,100.71L212.97,145.88L213.51,106.35L214.05,128.94L214.59,185.41L215.14,168.47L215.68,106.35L216.22,66.82L216.76,106.35L217.3,174.12L217.84,134.59L218.38,134.59L218.92,168.47L220,196.71L220.54,168.47L222.16,219.29L222.7,185.41L223.24,202.35L223.78,145.88L224.86,61.18L225.41,151.53L225.95,145.88L226.49,168.47L227.57,72.47L228.11,140.24L229.19,151.53L229.73,83.76L230.27,16L230.81,213.65L231.35,224.94L231.89,179.76L232.43,230.59L232.97,219.29L233.51,213.65L234.59,106.35L235.14,128.94L235.68,174.12L236.22,157.18L236.76,95.06L238.38,219.29L238.92,219.29L240,185.41L240.54,145.88L241.62,202.35L242.16,208L242.7,100.71L243.24,196.71L243.78,100.71L244.32,106.35L244.86,208L245.41,100.71L245.95,179.76L246.49,162.82L247.03,89.41L248.11,202.35L248.65,224.94L249.19,224.94L249.73,202.35L250.81,123.29L251.35,151.53L251.89,49.88L252.43,123.29L252.97,123.29L253.51,140.24L254.05,134.59L254.59,191.06L255.68,191.06L256.22,140.24L256.76,134.59L257.3,145.88L257.84,196.71L258.38,140.24L258.92,213.65L259.46,191.06L260,174.12L260.54,185.41L261.08,230.59L262.16,202.35L262.7,208L263.78,230.59L264.32,224.94L264.86,106.35L265.41,219.29L266.49,134.59L267.03,224.94L267.57,179.76L268.11,224.94L269.19,151.53L269.73,145.88L270.27,100.71L270.81,117.65L271.35,185.41L271.89,213.65L272.43,151.53L272.97,208L273.51,202.35L274.05,191.06L274.59,196.71L275.14,224.94L276.76,145.88L277.3,191.06L277.84,230.59L278.38,208L278.92,196.71L279.46,224.94L280,100.71L280.54,168.47L281.08,128.94L281.62,145.88L282.16,100.71L282.7,134.59L283.24,145.88L283.78,174.12L284.86,208L285.41,123.29L285.95,196.71L286.49,145.88L287.03,196.71L287.57,100.71L288.11,21.65L288.65,174.12L290.81,236.24L291.35,191.06L291.89,208L292.43,185.41L293.51,202.35L294.05,168.47L294.59,196.71L295.14,112L296.22,185.41L296.76,219.29L297.3,230.59L297.84,213.65L298.92,196.71L299.46,128.94L300.54,208L301.08,219.29L301.62,208L302.16,219.29L302.7,213.65L303.24,224.94L303.78,145.88L304.32,202.35L304.86,213.65L305.41,191.06L305.95,219.29L306.49,208L307.03,202.35L307.57,213.65L308.65,128.94L309.19,134.59L309.73,117.65L310.27,174.12L310.81,174.12L311.35,106.35L312.43,219.29L312.97,179.76L314.05,219.29L314.59,185.41L315.14,208L315.68,174.12L316.22,202.35L316.76,168.47L317.3,162.82L317.84,208L318.92,219.29L319.46,208L320,89.41L320.54,202.35L321.08,112L321.62,196.71L322.16,145.88L322.7,168.47L323.24,202.35L323.78,174.12L324.32,196.71L324.86,100.71L325.95,208L326.49,191.06L327.57,168.47L328.11,89.41L328.65,196.71L329.19,117.65L329.73,168.47L330.27,140.24L330.81,191.06L331.35,134.59L332.43,230.59L332.97,128.94L334.59,224.94L335.14,219.29L335.68,224.94L336.22,208L336.76,95.06L337.3,191.06L337.84,117.65L338.38,179.76L338.92,145.88L339.46,123.29L340,140.24L340.54,128.94L341.08,219.29L341.62,208L342.16,128.94L343.24,219.29L343.78,174.12L344.86,213.65L345.41,179.76L346.49,219.29L347.03,185.41L347.57,174.12L348.11,179.76L348.65,78.12L349.19,230.59L349.73,219.29L350.27,191.06L350.81,106.35L351.35,202.35L351.89,168.47L352.43,236.24L354.05,157.18L354.59,202.35L355.14,208L355.68,196.71L356.22,208L356.76,196.71L357.84,213.65L358.38,219.29L358.92,219.29L359.46,202.35L360.54,208L361.08,224.94L362.7,196.71L363.24,151.53L364.32,208L364.86,213.65L365.41,208L365.95,100.71L366.49,61.18L367.03,140.24L368.11,213.65L368.65,157.18L369.19,213.65L369.73,128.94L370.81,213.65L371.35,61.18L371.89,174.12L372.43,95.06L373.51,202.35L374.05,196.71L374.59,202.35L375.14,185.41L376.22,224.94L376.76,83.76L377.84,196.71L378.38,134.59L378.92,83.76L379.46,123.29L380,123.29L380.54,208L381.08,162.82L381.62,219.29L382.7,208L383.24,219.29L383.78,213.65L384.32,174.12L384.86,224.94L385.41,213.65L385.95,208L386.49,208L387.03,219.29L388.11,230.59L388.65,224.94L389.73,202.35L390.27,219.29L392.43,202.35L392.97,208L393.51,151.53L394.05,224.94L394.59,174.12L395.14,196.71L395.68,151.53L396.22,213.65L396.76,219.29L397.3,202.35L398.38,219.29L398.92,202.35L399.46,128.94L400,179.76L400.54,202.35L401.08,174.12L402.16,38.59L402.7,219.29L403.24,100.71L403.78,202.35L404.32,151.53L404.86,191.06L405.95,151.53L406.49,185.41L407.03,224.94L407.57,208L408.11,191.06L408.65,106.35L409.19,202.35L409.73,106.35L410.27,128.94L410.81,202.35L411.35,168.47L411.89,202.35L412.97,168.47L413.51,179.76L414.59,145.88L415.14,191.06L416.22,168.47L416.76,213.65L417.3,151.53L417.84,157.18L418.38,151.53L418.92,174.12L419.46,145.88L420,236.24L420.54,230.59L421.08,224.94L421.62,224.94L422.16,213.65L423.24,191.06L423.78,185.41L424.32,191.06L424.86,219.29L425.41,179.76L425.95,224.94L426.49,112L427.03,191.06L427.57,213.65L428.11,112L428.65,208L429.19,100.71L430.27,208L430.81,202.35L431.35,196.71L431.89,202.35L432.43,185.41L433.51,208L434.05,208L434.59,202.35L435.14,100.71L435.68,179.76L436.22,117.65L436.76,140.24L437.3,100.71L437.84,128.94L438.38,202.35L438.92,224.94L439.46,185.41L440.54,179.76L441.08,202.35L441.62,174.12L442.16,213.65L442.7,134.59L443.24,213.65L443.78,106.35L444.32,140.24L444.86,145.88L445.41,145.88L445.95,208L446.49,230.59L447.03,174.12L447.57,157.18L448.11,72.47L448.65,224.94L449.19,213.65L449.73,213.65L450.27,151.53L450.81,196.71L451.35,196.71L451.89,213.65L452.43,128.94L452.97,179.76L453.51,219.29L454.05,145.88L455.14,219.29L455.68,196.71L456.22,191.06L456.76,151.53L457.3,219.29L457.84,191.06L458.92,185.41L459.46,151.53L461.08,230.59L461.62,219.29L462.16,162.82L462.7,224.94L463.78,196.71L464.32,140.24L465.95,219.29L466.49,179.76L467.57,219.29L468.11,219.29L468.65,224.94L469.19,213.65L470.81,157.18L471.35,174.12L471.89,179.76L472.43,162.82L472.97,78.12L473.51,202.35L474.59,89.41L475.14,208L475.68,196.71L476.22,123.29L476.76,185.41L477.3,117.65L478.38,191.06L478.92,196.71L480.54,219.29L481.08,213.65L482.16,162.82L482.7,179.76L483.24,185.41L483.78,61.18L484.86,196.71L485.41,191.06L485.95,219.29L486.49,208L487.03,185.41L487.57,208L488.11,213.65L488.65,196.71L489.19,174.12L489.73,202.35L490.27,213.65L490.81,185.41L491.35,191.06L491.89,224.94L492.43,213.65L492.97,219.29L494.59,95.06L495.14,191.06L495.68,151.53L496.22,191.06L497.3,230.59L497.84,179.76L498.38,140.24L498.92,151.53L499.46,151.53L500,89.41L500.54,123.29L501.62,224.94L502.16,219.29L502.7,128.94L503.24,168.47L503.78,230.59L504.32,213.65L504.86,168.47L505.41,106.35L505.95,213.65L506.49,230.59L507.03,196.71L507.57,213.65L508.11,185.41L508.65,168.47L509.19,117.65L510.27,208L510.81,134.59L511.35,185.41L511.89,151.53L512.97,219.29L513.51,208L514.05,191.06L514.59,236.24L516.22,179.76L516.76,213.65L517.3,224.94L517.84,185.41L518.38,208L518.92,168.47L519.46,185.41L520,168.47L521.08,112L521.62,157.18L523.78,202.35L524.32,196.71L524.86,140.24L525.41,196.71L525.95,208L526.49,89.41L527.03,196.71L527.57,140.24L528.65,224.94L529.19,196.71L530.27,134.59L530.81,196.71L531.35,191.06L531.89,157.18L532.97,174.12L533.51,224.94L534.05,213.65L534.59,145.88L535.14,219.29L535.68,157.18L536.22,202.35L536.76,196.71L537.3,179.76L537.84,208L538.38,202.35L538.92,213.65L539.46,100.71L540,168.47" style="vector-effect: none; fill: none; stroke: rgb(99, 110, 250); stroke-opacity: 1; stroke-width: 2px; opacity: 1;"/></g><g class="points"/><g class="text"/></g></g></g><g class="overplot"/><path class="xlines-above crisp" d="M0,0" style="fill: none;"/><path class="ylines-above crisp" d="M0,0" style="fill: none;"/><g class="overlines-above"/><g class="xaxislayer-above"><g class="xtick"><text text-anchor="middle" x="0" y="439" transform="translate(80,0)" style="font-family: 'Courier New', monospace; font-size: 18px; fill: rgb(102, 51, 153); fill-opacity: 1; white-space: pre; opacity: 1;">0</text></g><g class="xtick"><text text-anchor="middle" x="0" y="439" style="font-family: 'Courier New', monospace; font-size: 18px; fill: rgb(102, 51, 153); fill-opacity: 1; white-space: pre; opacity: 1;" transform="translate(188.11,0)">200</text></g><g class="xtick"><text text-anchor="middle" x="0" y="439" style="font-family: 'Courier New', monospace; font-size: 18px; fill: rgb(102, 51, 153); fill-opacity: 1; white-space: pre; opacity: 1;" transform="translate(296.22,0)">400</text></g><g class="xtick"><text text-anchor="middle" x="0" y="439" style="font-family: 'Courier New', monospace; font-size: 18px; fill: rgb(102, 51, 153); fill-opacity: 1; white-space: pre; opacity: 1;" transform="translate(404.32,0)">600</text></g><g class="xtick"><text text-anchor="middle" x="0" y="439" style="font-family: 'Courier New', monospace; font-size: 18px; fill: rgb(102, 51, 153); fill-opacity: 1; white-space: pre; opacity: 1;" transform="translate(512.4300000000001,0)">800</text></g></g><g class="yaxislayer-above"><g class="ytick"><text text-anchor="end" x="79" y="6.3" transform="translate(0,415.29)" style="font-family: 'Courier New', monospace; font-size: 18px; fill: rgb(102, 51, 153); fill-opacity: 1; white-space: pre; opacity: 1;">30</text></g><g class="ytick"><text text-anchor="end" x="79" y="6.3" style="font-family: 'Courier New', monospace; font-size: 18px; fill: rgb(102, 51, 153); fill-opacity: 1; white-space: pre; opacity: 1;" transform="translate(0,358.82)">40</text></g><g class="ytick"><text text-anchor="end" x="79" y="6.3" style="font-family: 'Courier New', monospace; font-size: 18px; fill: rgb(102, 51, 153); fill-opacity: 1; white-space: pre; opacity: 1;" transform="translate(0,302.35)">50</text></g><g class="ytick"><text text-anchor="end" x="79" y="6.3" style="font-family: 'Courier New', monospace; font-size: 18px; fill: rgb(102, 51, 153); fill-opacity: 1; white-space: pre; opacity: 1;" transform="translate(0,245.88)">60</text></g><g class="ytick"><text text-anchor="end" x="79" y="6.3" style="font-family: 'Courier New', monospace; font-size: 18px; fill: rgb(102, 51, 153); fill-opacity: 1; white-space: pre; opacity: 1;" transform="translate(0,189.41)">70</text></g><g class="ytick"><text text-anchor="end" x="79" y="6.3" style="font-family: 'Courier New', monospace; font-size: 18px; fill: rgb(102, 51, 153); fill-opacity: 1; white-space: pre; opacity: 1;" transform="translate(0,132.94)">80</text></g></g><g class="overaxes-above"/></g></g><g class="polarlayer"/><g class="smithlayer"/><g class="ternarylayer"/><g class="geolayer"/><g class="funnelarealayer"/><g class="pielayer"/><g class="iciclelayer"/><g class="treemaplayer"/><g class="sunburstlayer"/><g class="glimages"/><defs id="topdefs-1ff5f7"><g class="clips"/></defs><g class="layer-above"><g class="imagelayer"/><g class="shapelayer"/></g><g class="infolayer"><g class="g-gtitle"><text class="gtitle" x="35" y="50" text-anchor="start" dy="0em" style="font-family: 'Courier New', monospace; font-size: 25px; fill: rgb(102, 51, 153); opacity: 1; font-weight: normal; white-space: pre;">2 Thread(s) over 1000 Generations</text></g><g class="g-xtitle"><text class="xtitle" x="350" y="473.9" text-anchor="middle" style="font-family: 'Courier New', monospace; font-size: 22px; fill: rgb(102, 51, 153); opacity: 1; font-weight: normal; white-space: pre;">Generations</text></g><g class="g-ytitle"><text class="ytitle" transform="rotate(-90,27.490625,260)" x="27.490625" y="260" text-anchor="middle" style="font-family: 'Courier New', monospace; font-size: 22px; fill: rgb(102, 51, 153); opacity: 1; font-weight: normal; white-space: pre;">Milliseconds</text></g></g></svg>